<svg xmlns="http://www.w3.org/2000/svg" viewBox="0 0 1200 800" role="img" aria-labelledby="title desc">
  <title id="title">Neon Meteor Run cabinet art</title>
  <desc id="desc">Retro sci-fi arcade poster with neon cyan runner and meteor rain.</desc>
  <defs>
    <linearGradient id="bg" x1="0" y1="0" x2="1" y2="1">
      <stop offset="0%" stop-color="#180f43"/>
      <stop offset="55%" stop-color="#0f0c23"/>
      <stop offset="100%" stop-color="#07050f"/>
    </linearGradient>
    <linearGradient id="floor" x1="0" y1="0" x2="0" y2="1">
      <stop offset="0%" stop-color="#3bf5ff"/>
      <stop offset="100%" stop-color="#1f7cff"/>
    </linearGradient>
  </defs>
  <rect width="1200" height="800" fill="url(#bg)"/>
  <g opacity="0.45" stroke="#47f5ff">
    <path d="M0 610h1200"/>
    <path d="M0 660h1200"/>
    <path d="M0 710h1200"/>
    <path d="M120 800V430"/>
    <path d="M300 800V430"/>
    <path d="M480 800V430"/>
    <path d="M660 800V430"/>
    <path d="M840 800V430"/>
    <path d="M1020 800V430"/>
  </g>
  <circle cx="960" cy="170" r="110" fill="#ff4fd8" opacity="0.22"/>
  <circle cx="240" cy="150" r="90" fill="#47f5ff" opacity="0.18"/>
  <g fill="#ff4fd8">
    <circle cx="180" cy="220" r="16"/>
    <circle cx="360" cy="280" r="24"/>
    <circle cx="760" cy="180" r="18"/>
    <circle cx="920" cy="280" r="22"/>
    <circle cx="1060" cy="200" r="14"/>
  </g>
  <g transform="translate(585 470)">
    <rect x="-32" y="-54" width="64" height="108" rx="12" fill="#47f5ff"/>
    <rect x="-92" y="-8" width="58" height="24" rx="12" fill="#47f5ff"/>
    <rect x="34" y="-8" width="58" height="24" rx="12" fill="#47f5ff"/>
    <rect x="-24" y="54" width="18" height="80" rx="8" fill="#ffd166"/>
    <rect x="6" y="54" width="18" height="80" rx="8" fill="#ffd166"/>
  </g>
  <text x="96" y="118" fill="#f8f5ec" font-family="'Arial Black', sans-serif" font-size="80" letter-spacing="6">
    NEON METEOR RUN
  </text>
  <text x="98" y="170" fill="#9dcdfc" font-family="Arial, sans-serif" font-size="28" letter-spacing="5">
    DODGE THE SHOWER  COLLECT THE SPARKS
  </text>
</svg>
