<svg width="1200" height="720" viewBox="0 0 1200 720" fill="none" xmlns="http://www.w3.org/2000/svg">
  <rect width="1200" height="720" fill="#0A0613"/>
  <rect y="390" width="1200" height="330" fill="#0F1017"/>
  <circle cx="603" cy="152" r="92" fill="#FFAA54"/>
  <path d="M170 720L435 250H765L1030 720H170Z" fill="#161320"/>
  <path d="M503 250L447 720" stroke="#3A4051" stroke-width="8"/>
  <path d="M697 250L753 720" stroke="#3A4051" stroke-width="8"/>
  <path d="M600 260V720" stroke="#F3D96B" stroke-width="10" stroke-dasharray="34 28"/>
  <rect x="272" y="135" width="76" height="160" fill="#1A1430"/>
  <rect x="372" y="85" width="68" height="210" fill="#1A1430"/>
  <rect x="760" y="98" width="74" height="197" fill="#1A1430"/>
  <rect x="862" y="140" width="82" height="155" fill="#1A1430"/>
  <rect x="288" y="161" width="12" height="12" fill="#FFD27A"/>
  <rect x="320" y="161" width="12" height="12" fill="#FFD27A"/>
  <rect x="288" y="193" width="12" height="12" fill="#FFD27A"/>
  <rect x="320" y="193" width="12" height="12" fill="#FFD27A"/>
  <rect x="388" y="117" width="12" height="12" fill="#FFD27A"/>
  <rect x="420" y="117" width="12" height="12" fill="#FFD27A"/>
  <rect x="388" y="149" width="12" height="12" fill="#FFD27A"/>
  <rect x="420" y="149" width="12" height="12" fill="#FFD27A"/>
  <rect x="776" y="130" width="12" height="12" fill="#FFD27A"/>
  <rect x="808" y="130" width="12" height="12" fill="#FFD27A"/>
  <rect x="776" y="162" width="12" height="12" fill="#FFD27A"/>
  <rect x="808" y="162" width="12" height="12" fill="#FFD27A"/>
  <rect x="561" y="460" width="78" height="122" rx="10" fill="#F5F3F1"/>
  <rect x="580" y="486" width="40" height="26" fill="#1D1231"/>
  <rect x="576" y="542" width="14" height="18" fill="#FF7CC5"/>
  <rect x="610" y="542" width="14" height="18" fill="#FF7CC5"/>
  <rect x="392" y="316" width="82" height="124" rx="10" fill="#F24C74"/>
  <rect x="716" y="360" width="82" height="124" rx="10" fill="#F24C74"/>
  <path d="M599 331L616 350L599 369L582 350L599 331Z" fill="#70FFD7"/>
  <text x="110" y="628" fill="#F7F3EA" font-family="monospace" font-size="56" letter-spacing="8">SKYLINE SPRINT GX</text>
</svg>
